<svg preserveAspectRatio="xMidYMid meet" data-bbox="0 0 99.847 33.589" xmlns="http://www.w3.org/2000/svg" viewBox="0 0 99.847 33.589" role="img" aria-labelledby="grainLogoTitle">
  <title id="grainLogoTitle">Grain</title>
  <g>
    <path fill="#2B3674" d="M3.316 9.31A3.316 3.316 0 0 0 0 12.628v14.92a3.316 3.316 0 0 0 3.316 3.317h14.921a3.316 3.316 0 0 0 3.316-3.316V12.627a3.316 3.316 0 0 0-3.316-3.316zM5.8 27.074v-6.025c0-1.171.632-2.26 1.671-2.877l7.94-4.715v6.024c0 1.171-.63 2.26-1.67 2.878z" clip-rule="evenodd" fill-rule="evenodd"/>
    <path fill="#2B3674" d="M38.939 23.641c-2.264 0-3.953-2.263-3.953-5.101 0-2.87 1.69-5.133 3.953-5.133 2.454 0 3.953 2.104 3.953 5.101 0 3.029-1.499 5.133-3.953 5.133m3.793-13.2v2.233c-.765-1.499-2.741-2.615-4.909-2.615-4.303 0-7.46 3.571-7.46 8.45 0 5.005 3.22 8.48 7.46 8.48 1.785 0 3.794-.701 4.91-2.583v2.296c0 2.582-1.53 3.666-3.826 3.666-2.008 0-3.156-.669-3.538-2.104h-4.176c.573 4.018 3.825 5.325 7.49 5.325 5.26 0 8.416-2.105 8.416-7.716V10.442z"/>
    <path fill="#2B3674" d="M59.316 10.537a10 10 0 0 0-.957-.063c-1.976 0-3.538.86-4.526 2.965v-2.997h-4.335v17.153h4.399v-8.991c0-3.22 1.434-4.017 3.602-4.017.637 0 1.18.031 1.817.095z"/>
    <path fill="#2B3674" d="M70.693 21.027c0 2.487-1.18 3.985-3.92 3.985-1.977 0-2.965-1.02-2.965-2.264 0-1.912 1.976-2.486 6.885-2.996zm.383 4.432c.063.829.159 1.594.286 2.136h4.049c-.319-1.435-.51-2.965-.51-5.675 0-1.563.064-3.826.064-4.368 0-5.803-3.316-7.557-7.396-7.557-4.399 0-7.204 2.487-7.523 5.867h4.112c.096-1.881 1.498-2.774 3.188-2.774 1.785 0 3.22.925 3.22 3.57v.288c-6.727.765-11.285 1.977-11.285 6.026 0 3.124 2.9 5.037 6.184 5.037 2.582 0 4.4-.765 5.61-2.55"/>
    <path fill="#2B3674" d="M88.944 10.442h-4.399v17.153h4.4v-8.927c0-2.71.637-5.07 3.538-5.07 2.486 0 2.964 1.913 2.964 4.145v9.852h4.4V16.787c0-4.21-1.818-6.728-5.93-6.728-2.104 0-3.985.925-4.973 2.647z"/>
    <path fill="#2B3674" d="M77.413 13.119c0-.616.337-1.182.878-1.476l3.596-1.948v17.9h-4.474z"/>
    <path fill="#2B3674" d="M84.03 4.741a1.68 1.68 0 0 1-.808 1.436l-5.81 3.518v-4.14a2.61 2.61 0 0 1 1.236-2.219L84.03 0z"/>
  </g>
</svg>
